<svg width="760" height="170" viewBox="0 0 760 170" fill="none" xmlns="http://www.w3.org/2000/svg">
<path d="M553.574 63.7911C570.059 60.0093 586.514 70.1536 590.244 86.3927C593.974 102.638 583.54 118.752 567.001 122.302C550.631 125.822 534.448 115.684 530.754 99.6053C527.067 83.5266 537.253 67.5313 553.574 63.7911ZM564.933 110.695C574.762 108.239 580.759 98.4695 578.389 88.7712C576.02 79.067 566.16 73.0494 556.265 75.2614C549.76 76.7182 544.549 81.499 542.633 87.7901C540.711 94.0753 542.379 100.896 546.997 105.635C551.61 110.374 558.465 112.306 564.933 110.695Z" fill="#7C3AED"/>
<path d="M152.84 63.8743C169.013 59.8983 185.327 69.8623 189.179 86.0651C193.032 102.268 182.947 118.5 166.716 122.232C150.659 125.921 134.632 115.969 130.82 99.9395C127.009 83.9099 136.841 67.8086 152.84 63.8743ZM164.137 110.924C174.036 108.656 180.209 98.7754 177.914 88.883C175.619 78.9846 165.727 72.8354 155.838 75.1518C145.979 77.4622 139.851 87.3188 142.139 97.1814C144.427 107.044 154.268 113.193 164.137 110.924Z" fill="#404040"/>
<path d="M594 64.0061C597.884 64.5266 603.255 64.3389 607.284 64.3147C608.945 73.0057 616.925 95.3324 620 104.61C623.703 91.3864 629.279 78.023 633.085 64.236L644.526 64.3329C648.579 75.2935 655.237 93.8436 658.499 104.726C662.709 91.1443 667.481 78.1744 671.529 64.3147C676.023 64.3571 680.518 64.2542 685 64C683.532 67.8008 682.143 71.6319 680.832 75.4932C675.77 89.9459 669.124 106.596 664.878 120.982C660.764 120.703 656.735 120.855 652.609 120.939C649.498 112.424 640.714 89.492 638.89 81.2307C636.884 92.0218 629.339 109.362 625.854 121C622.289 120.709 616.992 120.818 613.289 120.8C607.514 103.866 598.434 80.7526 594 64.0061Z" fill="#7C3AED"/>
<path d="M91.7545 41.1703C106.61 40.5501 112.876 41.2968 126 49.0101C124.058 52.4603 122.18 55.9466 120.368 59.4691C111.485 54.2667 100.319 51.1837 90.1308 53.9535C83.0426 55.8503 77.0443 60.5589 73.5325 66.9837C69.3958 74.5284 68.804 84.2769 71.4861 92.4117C73.9696 99.7998 79.3956 105.833 86.4862 109.103C94.7253 112.932 103.442 112.258 111.761 109.35C114.939 107.971 117.077 106.748 120.051 105.062C121.756 108.483 123.491 111.541 125.377 114.859C110.386 124.313 90.2467 126.36 74.8591 116.575C65.6285 110.632 59.2033 101.209 57.0453 90.4668C51.7262 65.0268 67.2256 46.2523 91.7545 41.1703Z" fill="#404040"/>
<path d="M441.198 41L498 41.0965C497.839 45.159 497.94 49.469 497.976 53.5617C483.2 53.453 468.418 53.4651 453.635 53.604L453.952 75.6186C459.245 75.5884 490.003 74.8217 493.178 75.8781L493.202 77.7917L493.369 86.5987C482.991 86.979 463.918 86.9308 453.504 86.5625C454.172 94.9048 453.659 111.867 453.791 120.922C449.75 120.813 445.352 120.952 441.282 121C440.697 95.0255 441.204 67.1496 441.198 41Z" fill="#7C3AED"/>
<path d="M225.78 64.2275C226.675 64.1618 227.57 64.108 228.466 64.0602C254.606 62.7693 253.043 82.4565 252.955 101.414L252.966 120.863C248.877 120.809 244.458 120.952 240.341 121C240.064 109.531 241.452 94.2425 239.282 83.1019C237.426 73.5811 227.873 74.0293 220.051 76.916C211.879 82.3369 211.774 88.3972 211.812 97.5774C211.844 105.359 211.997 113.171 212.101 120.952C208.128 120.797 203.367 120.928 199.33 120.946C199.343 104.534 200.07 80.8188 199 64.8969C203.951 65.1001 207.122 65.0285 212.083 64.7356L212.014 72.9176C216.861 67.712 219.321 66.4389 225.78 64.2275Z" fill="#404040"/>
<path d="M361.948 65.0303L374 65L373.964 84.8607L373.976 121.733C370.064 121.63 365.913 121.691 361.984 121.685V113.716C356.713 120.428 352.321 122.887 344.002 122.997C318.454 123.325 321.572 98.18 321.514 80.1232C321.497 74.9364 320.831 70.3448 321.041 65.1579C325.348 65.0182 330.088 65.1154 334.432 65.1093C334.341 73.1993 332.261 104.934 337.896 108.25C368.177 126.04 362.031 75.4101 361.948 65.0303Z" fill="#404040"/>
<path d="M287.379 64.2115C299.531 63.6448 303.055 63.8378 313.766 69.6916C312.333 72.9652 310.89 77.0103 309.586 80.3984C298.952 72.8385 283.367 71.5484 276.858 84.9259C274.403 89.996 274.167 95.8559 276.207 101.107C277.924 105.514 281.39 109.016 285.782 110.777C292.986 113.67 299.705 111.386 306.333 108.57C308.562 107.298 308.047 107.111 310.02 107.437C311.472 108.914 311.524 109.053 312.131 111.036L314 117.107C302.835 123.256 287.917 125.692 276.421 118.988C269.735 115.087 264.926 108.631 263.099 101.107C258.411 81.9478 269.134 68.5461 287.379 64.2115Z" fill="#404040"/>
<path d="M508.331 41C512.143 41.2474 517.092 41.1387 521 41.1568C520.543 63.2657 521.078 85.5135 520.826 107.628C520.784 111.514 521.102 116.704 520.555 120.439L519.256 120.97L508 121C508.343 94.3896 507.657 67.5983 508.331 41Z" fill="#7C3AED"/>
<path d="M416.306 64.2128C420.724 63.9747 423.594 63.927 428 64.1176C427.91 67.9104 427.45 72.1439 427.121 75.9725C395.4 71.6914 401.277 99.2714 401.48 120.85C398.605 120.707 395.275 120.742 392.351 120.701C389.894 120.975 390.755 121.368 389.284 120.272C388.794 114.348 389.081 105.756 389.105 99.6644C389.171 88.1846 389.159 76.6989 389.075 65.2191C392.925 65.3441 397.086 65.2846 400.96 65.3024L400.972 74.3053C406.472 67.8628 408.152 66.5529 416.306 64.2128Z" fill="#404040"/>
</svg>
