<svg width="821" height="170" viewBox="0 0 821 170" fill="none" xmlns="http://www.w3.org/2000/svg">
<path d="M672.574 64.7911C689.059 61.0093 705.514 71.1536 709.244 87.3927C712.974 103.638 702.54 119.752 686.001 123.302C669.631 126.822 653.448 116.684 649.754 100.605C646.067 84.5266 656.253 68.5313 672.574 64.7911ZM683.933 111.695C693.762 109.239 699.759 99.4695 697.389 89.7712C695.02 80.067 685.16 74.0494 675.265 76.2614C668.76 77.7182 663.549 82.499 661.633 88.7901C659.711 95.0753 661.379 101.896 665.997 106.635C670.61 111.374 677.465 113.306 683.933 111.695Z" fill="#7C3AED"/>
<path d="M271.84 64.8743C288.013 60.8983 304.327 70.8623 308.179 87.0651C312.032 103.268 301.947 119.5 285.716 123.232C269.659 126.921 253.632 116.969 249.82 100.94C246.009 84.9099 255.841 68.8086 271.84 64.8743ZM283.137 111.924C293.036 109.656 299.209 99.7754 296.914 89.883C294.619 79.9846 284.727 73.8354 274.838 76.1518C264.979 78.4622 258.851 88.3188 261.139 98.1814C263.427 108.044 273.268 114.193 283.137 111.924Z" fill="#404040"/>
<path d="M713 65.0061C716.884 65.5266 722.255 65.3389 726.284 65.3147C727.945 74.0057 735.925 96.3324 739 105.61C742.703 92.3864 748.279 79.023 752.085 65.236L763.526 65.3329C767.579 76.2935 774.237 94.8436 777.499 105.726C781.709 92.1443 786.481 79.1744 790.529 65.3147C795.023 65.3571 799.518 65.2542 804 65C802.532 68.8008 801.143 72.6319 799.832 76.4932C794.77 90.9459 788.124 107.596 783.878 121.982C779.764 121.703 775.735 121.855 771.609 121.939C768.498 113.424 759.714 90.492 757.89 82.2307C755.884 93.0218 748.339 110.362 744.854 122C741.289 121.709 735.992 121.818 732.289 121.8C726.514 104.866 717.434 81.7526 713 65.0061Z" fill="#7C3AED"/>
<path d="M210.754 42.1703C225.61 41.5501 231.876 42.2968 245 50.0101C243.058 53.4603 241.18 56.9466 239.368 60.4691C230.485 55.2667 219.319 52.1837 209.131 54.9535C202.043 56.8503 196.044 61.5589 192.533 67.9837C188.396 75.5284 187.804 85.2769 190.486 93.4117C192.97 100.8 198.396 106.833 205.486 110.103C213.725 113.932 222.442 113.258 230.761 110.35C233.939 108.971 236.077 107.748 239.051 106.062C240.756 109.483 242.491 112.541 244.377 115.859C229.386 125.313 209.247 127.36 193.859 117.575C184.629 111.632 178.203 102.209 176.045 91.4668C170.726 66.0268 186.226 47.2523 210.754 42.1703Z" fill="#404040"/>
<path d="M560.198 42L617 42.0965C616.839 46.159 616.94 50.469 616.976 54.5617C602.2 54.453 587.418 54.4651 572.635 54.604L572.952 76.6186C578.245 76.5884 609.003 75.8217 612.178 76.8781L612.202 78.7917L612.369 87.5987C601.991 87.979 582.918 87.9308 572.504 87.5625C573.172 95.9048 572.659 112.867 572.791 121.922C568.75 121.813 564.352 121.952 560.282 122C559.697 96.0255 560.204 68.1496 560.198 42Z" fill="#7C3AED"/>
<path d="M344.78 65.2275C345.675 65.1618 346.57 65.108 347.466 65.0602C373.606 63.7693 372.043 83.4565 371.955 102.414L371.966 121.863C367.877 121.809 363.458 121.952 359.341 122C359.064 110.531 360.452 95.2425 358.282 84.1019C356.426 74.5811 346.873 75.0293 339.051 77.916C330.879 83.3369 330.774 89.3972 330.812 98.5774C330.844 106.359 330.997 114.171 331.101 121.952C327.128 121.797 322.367 121.928 318.33 121.946C318.343 105.534 319.07 81.8188 318 65.8969C322.951 66.1001 326.122 66.0285 331.083 65.7356L331.014 73.9176C335.861 68.712 338.321 67.4389 344.78 65.2275Z" fill="#404040"/>
<path d="M480.948 66.0303L493 66L492.964 85.8607L492.976 122.733C489.064 122.63 484.913 122.691 480.984 122.685V114.716C475.713 121.428 471.321 123.887 463.002 123.997C437.454 124.325 440.572 99.18 440.514 81.1232C440.497 75.9364 439.831 71.3448 440.041 66.1579C444.348 66.0182 449.088 66.1154 453.432 66.1093C453.341 74.1993 451.261 105.934 456.896 109.25C487.177 127.04 481.031 76.4101 480.948 66.0303Z" fill="#404040"/>
<path d="M406.379 65.2115C418.531 64.6448 422.055 64.8378 432.766 70.6916C431.333 73.9652 429.89 78.0103 428.586 81.3984C417.952 73.8385 402.367 72.5484 395.858 85.9259C393.403 90.996 393.167 96.8559 395.207 102.107C396.924 106.514 400.39 110.016 404.782 111.777C411.986 114.67 418.705 112.386 425.333 109.57C427.562 108.298 427.047 108.111 429.02 108.437C430.472 109.914 430.524 110.053 431.131 112.036L433 118.107C421.835 124.256 406.917 126.692 395.421 119.988C388.735 116.087 383.926 109.631 382.099 102.107C377.411 82.9478 388.134 69.5461 406.379 65.2115Z" fill="#404040"/>
<path d="M627.331 42C631.143 42.2474 636.092 42.1387 640 42.1568C639.543 64.2657 640.078 86.5135 639.826 108.628C639.784 112.514 640.102 117.704 639.555 121.439L638.256 121.97L627 122C627.343 95.3896 626.657 68.5983 627.331 42Z" fill="#7C3AED"/>
<path d="M535.306 65.2128C539.724 64.9747 542.594 64.927 547 65.1176C546.91 68.9104 546.45 73.1439 546.121 76.9725C514.4 72.6914 520.277 100.271 520.48 121.85C517.605 121.707 514.275 121.742 511.351 121.701C508.894 121.975 509.755 122.368 508.284 121.272C507.794 115.348 508.081 106.756 508.105 100.664C508.171 89.1846 508.159 77.6989 508.075 66.2191C511.925 66.3441 516.086 66.2846 519.96 66.3024L519.972 75.3053C525.472 68.8628 527.152 67.5529 535.306 65.2128Z" fill="#404040"/>
<path d="M61.1808 41.1006C62.5132 40.9297 66.8235 41.0278 68.4096 41.0302L83.3215 41.0517L135.997 41.0088C136.036 45.8448 135.729 49.9965 132.803 54.0881C130.669 57.0143 127.566 59.0966 124.038 59.9669C120.693 60.817 112.683 60.5012 108.898 60.4814L79.9955 60.4481C67.1287 60.4263 55.1983 58.3886 46.8431 70.3307C45.4192 72.4337 44.2979 75.7864 44.0053 78.3031C43.2275 84.994 46.0542 89.1575 49.9298 94.093C46.7468 101.264 47.3234 108.273 47.6128 116C44.3289 114.805 39.7307 111.444 37.2054 109.096C29.1534 101.607 24.346 91.8316 24.0083 80.8356C23.7998 70.7763 27.5196 61.0285 34.386 53.6408C41.3098 46.3344 51.0235 41.4289 61.1808 41.1006Z" fill="url(#paint0_linear_86_129)"/>
<path d="M74.9389 79.0653C80.6737 78.9355 86.7508 79.0385 92.5092 79.0435L127.966 79C127.976 79.243 127.984 79.4859 127.99 79.7289C128.116 84.9974 127.069 89.1458 123.324 93.0226C117.04 99.5249 109.045 98.3126 100.841 98.3452C93.6345 98.374 86.3495 98.2307 79.1431 98.3922C77.0066 98.3985 75.1494 98.8378 73.4912 100.288C70.0932 103.28 71.3206 108.505 71.0704 112.505C70.7019 118.403 67.1502 122.315 61.3897 123.612C58.0204 124.372 55.42 123.814 52.0281 123.628L52.0028 110.828C51.9909 101.96 51.8094 95.2555 58.0195 87.8566C62.2179 82.782 68.3249 79.6089 74.9389 79.0653Z" fill="url(#paint1_linear_86_129)"/>
<defs>
<linearGradient id="paint0_linear_86_129" x1="130.527" y1="78.6772" x2="24.0941" y2="110.974" gradientUnits="userSpaceOnUse">
<stop stop-color="#9761F5"/>
<stop offset="0.721154" stop-color="#7C3AED"/>
</linearGradient>
<linearGradient id="paint1_linear_86_129" x1="90" y1="79" x2="90" y2="124" gradientUnits="userSpaceOnUse">
<stop stop-color="#9761F5"/>
<stop offset="0.903846" stop-color="#7C3AED"/>
</linearGradient>
</defs>
</svg>
