<svg width="800" height="800" viewBox="0 0 800 800" fill="none" xmlns="http://www.w3.org/2000/svg">
<path d="M292.462 165.578C300.075 164.596 324.706 165.16 333.769 165.173L418.98 165.297L719.983 165.05C720.208 192.841 718.45 216.7 701.732 240.213C689.535 257.029 671.803 268.995 651.648 273.996C632.529 278.882 586.762 277.067 565.13 276.953L399.975 276.761C326.45 276.636 258.276 264.926 210.532 333.554C202.395 345.639 195.988 364.906 194.316 379.369C189.871 417.819 206.024 441.745 228.17 470.108C209.982 511.319 213.277 551.595 214.931 596C196.165 589.133 169.889 569.819 155.459 556.323C109.448 513.285 81.9774 457.112 80.0475 393.922C78.856 336.115 100.112 280.097 139.348 237.643C178.913 195.655 234.42 167.465 292.462 165.578Z" fill="url(#paint0_linear_86_89)"/>
<path d="M373.295 375.378C406.119 374.626 440.903 375.223 473.862 375.252L676.808 375C676.864 376.409 676.91 377.818 676.943 379.228C677.664 409.785 671.673 433.846 650.234 456.331C614.268 494.044 568.506 487.013 521.55 487.202C480.303 487.369 438.606 486.538 397.359 487.475C385.13 487.511 374.5 490.059 365.009 498.47C345.56 515.825 352.585 546.128 351.153 569.331C349.044 603.539 328.715 626.226 295.744 633.75C276.459 638.155 261.575 634.922 242.161 633.84L242.016 559.602C241.948 508.169 240.909 469.282 276.453 426.368C300.484 396.935 335.439 378.531 373.295 375.378Z" fill="url(#paint1_linear_86_89)"/>
<defs>
<linearGradient id="paint0_linear_86_89" x1="688.723" y1="381.519" x2="79.9608" y2="565.204" gradientUnits="userSpaceOnUse">
<stop stop-color="#9761F5"/>
<stop offset="0.721154" stop-color="#7C3AED"/>
</linearGradient>
<linearGradient id="paint1_linear_86_89" x1="459.5" y1="375" x2="459.5" y2="636" gradientUnits="userSpaceOnUse">
<stop stop-color="#9761F5"/>
<stop offset="0.903846" stop-color="#7C3AED"/>
</linearGradient>
</defs>
</svg>
